Music video by Inna performing Crazy, Sexy, Wild.

A girl with a plan and seems like she found the perfect scapegoat for its successful execution. This is how things will unravel.


		           1080p Full HD MP4 Video
                                     +
                            96 kbps/VBR M4A Audio


Cover:  
http://www.shotpix.com/images/00399401050642029345.jpg

Sing Along!
English subtitles included.

                 Details:

General
Format                         : MPEG-4
Format profile                 : Base Media / Version 2
Codec ID                       : mp42
File size                      : 34.7 MiB
Duration                       : 3mn 21s
Overall bit rate mode          : Variable
Overall bit rate               : 1 446 Kbps

Video
ID                             : 1
Format                         : AVC
Duration                       : 3mn 21s
Bit rate mode                  : Variable
Bit rate                       : 1 312 Kbps
Width                          : 1 920 pixels
Height                         : 1 080 pixels
Display aspect ratio           : 16:9
Frame rate mode                : Variable
Frame rate                     : 23.976 fps
Stream size                    : 31.5 MiB (91%)

Audio
ID                             : 2
Format/Info                    : Advanced Audio Codec
Format profile                 : LC
Codec ID                       : 40
Duration                       : 3mn 21s
Bit rate mode                  : Variable
Bit rate                       : 128 Kbps
Channel(s)                     : 2 channels
Channel positions              : Front: L R
Sampling rate                  : 48.0 KHz
Stream size                    : 3.07 MiB (9%)








Screens:

 
http://www.shotpix.com/images/13781478717953378999.jpg
 
http://www.shotpix.com/images/38245513405652079768.jpg



Thumbs:
 
http://www.shotpix.com/images/73866403946906146893.jpg


------------------------------------------------------------------------------


Notes:

* Best played on VLC Media Player.
* Install shark007 codecs in case of any kind of problem in playback (For non-VLC Media Player users).
* Alternatively, install Core AVC codecs, the fastest decoder that there is coupled with Community Center Codec Pack and play on Windows Media Player Classic.
* Read NFO
* Help in seeding this torrent as much as you can. 




Greets to: VYTO, srkfan, MgB, staff members at ExtraTorrent, TPB,KAT, 1337x, PublicHD, Ahashare,
SilverTorrent, TorrentMafia, P2PDL, and all others


Encoder Notes: 
Looking For Early Access To Anything You Can Provide DVDScr, R5, DVDRips, BluRay, Direct Audio, Early Music Releases, Seedboxes, Links, Dedicated Servers, Advance / Promo CDs/DVDs. If You Got anything to offer contact me at "contact@tinym.eu"
                                 
                                  Enjoy!